<?xml version="1.0" standalone="no"?>
<!DOCTYPE svg PUBLIC "-//W3C//DTD SVG 20010904//EN"
 "http://www.w3.org/TR/2001/REC-SVG-20010904/DTD/svg10.dtd">
<svg version="1.0" xmlns="http://www.w3.org/2000/svg"
 width="300.000000pt" height="175.000000pt" viewBox="0 0 300.000000 175.000000"
 preserveAspectRatio="xMidYMid meet">
<metadata>
Created by potrace 1.10, written by Peter Selinger 2001-2011
</metadata>
<g transform="translate(0.000000,175.000000) scale(0.100000,-0.100000)"
fill="#000000" stroke="none">
<path d="M780 1254 c19 -2 91 -9 160 -15 126 -10 218 -26 322 -55 l56 -16 26
-72 25 -71 -31 -24 c-61 -48 -78 -158 -35 -222 36 -53 87 -76 186 -84 47 -3
110 -13 139 -21 97 -27 167 -116 198 -248 l14 -61 -4 64 c-6 88 -53 182 -112
224 -24 17 -42 32 -40 34 2 2 23 -5 48 -16 60 -25 117 -77 140 -126 l19 -40
-6 35 c-12 71 -91 137 -198 166 -29 8 -95 17 -147 20 -159 11 -220 54 -220
155 0 83 57 126 153 116 69 -7 188 -55 194 -78 3 -10 14 -21 24 -24 11 -4 33
-18 50 -32 28 -24 32 -25 47 -9 15 15 15 16 -1 16 -9 0 -30 18 -45 40 -15 21
-34 39 -43 40 -9 0 -22 7 -29 15 -7 8 -16 13 -20 10 -5 -3 -16 5 -24 17 -11
15 -16 18 -16 8 -1 -10 -7 -8 -20 9 -11 13 -20 18 -20 13 0 -8 -9 -8 -27 -1
-16 5 -55 12 -88 17 -53 6 -62 11 -82 41 -13 19 -23 49 -23 67 0 30 -4 34 -54
53 -95 35 -213 53 -386 56 -91 2 -149 1 -130 -1z"/>
<path d="M970 1160 c-84 -12 -251 -50 -270 -62 -12 -7 -11 -8 5 -4 114 29 227
40 412 40 192 1 233 5 181 20 -41 11 -261 15 -328 6z"/>
<path d="M1160 1096 c-94 -21 -191 -57 -283 -103 -48 -25 -86 -47 -84 -49 2
-2 43 14 93 35 132 57 248 89 392 106 28 4 52 11 52 16 0 13 -104 9 -170 -5z"/>
<path d="M1562 1058 c32 -17 76 -46 98 -66 23 -19 43 -32 46 -29 8 8 -77 73
-133 101 -73 36 -80 32 -11 -6z"/>
</g>
</svg>
